# xmcd CD database file
#
# Track frame offsets:
#	150
#	13037
#	30887
#	57962
#	79337
#	100562
#	113012
#	136412
#	156587
#	169487
#	183362
#	203687
#	225662
#	245012
#	264962
#	283412
#	298937
#	316262
#
# Disc length: 4448 seconds
#
# Revision: 0
# Processed by: cddbd v1.5.1PL0 Copyright (c) Steve Scherf et al.
# Submitted via: CDex 1.51
#
DISCID=fe115e12
DTITLE=The Harlem Ramblers - Dixie Highway
DYEAR=1900
DGENRE=Jazz
TTITLE0=That Da Da Strain
TTITLE1=Bugle Boy March
TTITLE2=I want a little Girl
TTITLE3=Please don't talk about me
TTITLE4=Wolverine Blues
TTITLE5=Michael row the boat ashore
TTITLE6=Papa Dip
TTITLE7=Mack the Knife
TTITLE8=12th Street Rag
TTITLE9=Wänn i mal alt bin (When I'm 64)
TTITLE10=Livery Stable Blues
TTITLE11=Blues (my naughty Sweetie gives to me)
TTITLE12=My Buckets got a Hole in it
TTITLE13=Eleven Ten Blues
TTITLE14=Jazz me Blues
TTITLE15=Alexanders Ragtime Band
TTITLE16=Storyville Blues
TTITLE17=Savoy Blues
EXTD=
EXTT0=
EXTT1=
EXTT2=
EXTT3=
EXTT4=
EXTT5=
EXTT6=
EXTT7=
EXTT8=
EXTT9=
EXTT10=
EXTT11=
EXTT12=
EXTT13=
EXTT14=
EXTT15=
EXTT16=
EXTT17=
PLAYORDER=
